M48
; DRILL file {KiCad 9.0.6} date 2026-05-16T01:33:50-0400
; FORMAT={-:-/ absolute / metric / decimal}
; #@! TF.CreationDate,2026-05-16T01:33:50-04:00
; #@! TF.GenerationSoftware,Kicad,Pcbnew,9.0.6
; #@! TF.FileFunction,Plated,1,2,PTH
FMAT,2
METRIC
; #@! TA.AperFunction,Plated,PTH,ViaDrill
T1C0.300
; #@! TA.AperFunction,Plated,PTH,ViaDrill
T2C0.400
; #@! TA.AperFunction,Plated,PTH,ComponentDrill
T3C1.200
%
G90
G05
T1
X78.74Y-83.693
X78.74Y-84.455
X79.502Y-83.693
X79.502Y-84.455
X82.042Y-88.646
X82.55Y-88.011
X83.202Y-81.189
X83.439Y-82.973
X83.775Y-89.11
X84.269Y-81.995
X86.868Y-85.852
X86.902Y-80.61
X87.884Y-86.36
X88.29Y-85.141
X88.554Y-89.51
X89.586Y-84.15
X89.696Y-85.395
X90.304Y-88.824
X90.885Y-90.492
X91.725Y-82.61
X92.71Y-89.662
X92.837Y-85.09
X92.837Y-87.323
X93.98Y-90.17
X95.631Y-90.551
X96.52Y-85.725
X96.52Y-89.408
X97.378Y-90.245
X98.0Y-85.7
X98.171Y-89.408
X99.568Y-84.176
X99.949Y-89.408
X101.6Y-84.074
X101.854Y-89.281
X102.362Y-88.011
X102.362Y-89.916
X102.373Y-92.134
X102.743Y-87.122
X103.505Y-86.868
X103.65Y-91.21
X106.299Y-88.138
X106.68Y-81.915
X106.791Y-89.696
X107.061Y-88.773
X107.81Y-84.01
X108.509Y-88.798
X108.68Y-82.213
X109.22Y-84.709
X110.49Y-86.487
X112.903Y-85.09
X112.903Y-85.852
X113.665Y-85.09
X113.665Y-85.852
T2
X82.296Y-89.916
X88.454Y-88.42
T3
X76.2Y-78.74
X76.2Y-93.98
X78.74Y-78.74
X78.74Y-93.98
X81.28Y-78.74
X81.28Y-93.98
X83.82Y-78.74
X83.82Y-93.98
X86.36Y-78.74
X86.36Y-93.98
X88.9Y-78.74
X88.9Y-93.98
X91.44Y-78.74
X91.44Y-93.98
X93.98Y-78.74
X93.98Y-93.98
X96.52Y-78.74
X96.52Y-93.98
X99.06Y-78.74
X99.06Y-93.98
X101.6Y-78.74
X101.6Y-93.98
X104.14Y-78.74
X104.14Y-93.98
X106.68Y-78.74
X106.68Y-93.98
X109.22Y-78.74
X109.22Y-93.98
X111.76Y-78.74
X111.76Y-93.98
X114.3Y-78.74
X114.3Y-93.98
M30
