%TF.GenerationSoftware,KiCad,Pcbnew,9.0.6*%
%TF.CreationDate,2026-05-15T22:13:08-04:00*%
%TF.ProjectId,48tsop-32dip,34387473-6f70-42d3-9332-6469702e6b69,rev?*%
%TF.SameCoordinates,Original*%
%TF.FileFunction,Legend,Top*%
%TF.FilePolarity,Positive*%
%FSLAX46Y46*%
G04 Gerber Fmt 4.6, Leading zero omitted, Abs format (unit mm)*
G04 Created by KiCad (PCBNEW 9.0.6) date 2026-05-15 22:13:08*
%MOMM*%
%LPD*%
G01*
G04 APERTURE LIST*
%ADD10C,0.140000*%
%ADD11C,0.100000*%
%ADD12C,0.150000*%
%ADD13C,0.120000*%
%ADD14C,0.500000*%
G04 APERTURE END LIST*
D10*
X87558771Y-81259386D02*
X87558771Y-81726053D01*
X87392105Y-80992720D02*
X87225438Y-81492720D01*
X87225438Y-81492720D02*
X87658771Y-81492720D01*
X87925438Y-81726053D02*
X87925438Y-81026053D01*
X87925438Y-81026053D02*
X88158772Y-81526053D01*
X88158772Y-81526053D02*
X88392105Y-81026053D01*
X88392105Y-81026053D02*
X88392105Y-81726053D01*
X88725438Y-81726053D02*
X88725438Y-81026053D01*
X88725438Y-81292720D02*
X88792105Y-81259386D01*
X88792105Y-81259386D02*
X88925438Y-81259386D01*
X88925438Y-81259386D02*
X88992105Y-81292720D01*
X88992105Y-81292720D02*
X89025438Y-81326053D01*
X89025438Y-81326053D02*
X89058772Y-81392720D01*
X89058772Y-81392720D02*
X89058772Y-81592720D01*
X89058772Y-81592720D02*
X89025438Y-81659386D01*
X89025438Y-81659386D02*
X88992105Y-81692720D01*
X88992105Y-81692720D02*
X88925438Y-81726053D01*
X88925438Y-81726053D02*
X88792105Y-81726053D01*
X88792105Y-81726053D02*
X88725438Y-81692720D01*
X89358771Y-81726053D02*
X89358771Y-81259386D01*
X89358771Y-81026053D02*
X89325438Y-81059386D01*
X89325438Y-81059386D02*
X89358771Y-81092720D01*
X89358771Y-81092720D02*
X89392105Y-81059386D01*
X89392105Y-81059386D02*
X89358771Y-81026053D01*
X89358771Y-81026053D02*
X89358771Y-81092720D01*
X89592104Y-81259386D02*
X89858771Y-81259386D01*
X89692104Y-81026053D02*
X89692104Y-81626053D01*
X89692104Y-81626053D02*
X89725438Y-81692720D01*
X89725438Y-81692720D02*
X89792104Y-81726053D01*
X89792104Y-81726053D02*
X89858771Y-81726053D01*
X90592104Y-81092720D02*
X90625437Y-81059386D01*
X90625437Y-81059386D02*
X90692104Y-81026053D01*
X90692104Y-81026053D02*
X90858771Y-81026053D01*
X90858771Y-81026053D02*
X90925437Y-81059386D01*
X90925437Y-81059386D02*
X90958771Y-81092720D01*
X90958771Y-81092720D02*
X90992104Y-81159386D01*
X90992104Y-81159386D02*
X90992104Y-81226053D01*
X90992104Y-81226053D02*
X90958771Y-81326053D01*
X90958771Y-81326053D02*
X90558771Y-81726053D01*
X90558771Y-81726053D02*
X90992104Y-81726053D01*
X91325438Y-81726053D02*
X91458771Y-81726053D01*
X91458771Y-81726053D02*
X91525438Y-81692720D01*
X91525438Y-81692720D02*
X91558771Y-81659386D01*
X91558771Y-81659386D02*
X91625438Y-81559386D01*
X91625438Y-81559386D02*
X91658771Y-81426053D01*
X91658771Y-81426053D02*
X91658771Y-81159386D01*
X91658771Y-81159386D02*
X91625438Y-81092720D01*
X91625438Y-81092720D02*
X91592104Y-81059386D01*
X91592104Y-81059386D02*
X91525438Y-81026053D01*
X91525438Y-81026053D02*
X91392104Y-81026053D01*
X91392104Y-81026053D02*
X91325438Y-81059386D01*
X91325438Y-81059386D02*
X91292104Y-81092720D01*
X91292104Y-81092720D02*
X91258771Y-81159386D01*
X91258771Y-81159386D02*
X91258771Y-81326053D01*
X91258771Y-81326053D02*
X91292104Y-81392720D01*
X91292104Y-81392720D02*
X91325438Y-81426053D01*
X91325438Y-81426053D02*
X91392104Y-81459386D01*
X91392104Y-81459386D02*
X91525438Y-81459386D01*
X91525438Y-81459386D02*
X91592104Y-81426053D01*
X91592104Y-81426053D02*
X91625438Y-81392720D01*
X91625438Y-81392720D02*
X91658771Y-81326053D01*
X92192105Y-81359386D02*
X91958771Y-81359386D01*
X91958771Y-81726053D02*
X91958771Y-81026053D01*
X91958771Y-81026053D02*
X92292105Y-81026053D01*
X92858771Y-81259386D02*
X92858771Y-81726053D01*
X92692105Y-80992720D02*
X92525438Y-81492720D01*
X92525438Y-81492720D02*
X92958771Y-81492720D01*
X93358772Y-81026053D02*
X93425438Y-81026053D01*
X93425438Y-81026053D02*
X93492105Y-81059386D01*
X93492105Y-81059386D02*
X93525438Y-81092720D01*
X93525438Y-81092720D02*
X93558772Y-81159386D01*
X93558772Y-81159386D02*
X93592105Y-81292720D01*
X93592105Y-81292720D02*
X93592105Y-81459386D01*
X93592105Y-81459386D02*
X93558772Y-81592720D01*
X93558772Y-81592720D02*
X93525438Y-81659386D01*
X93525438Y-81659386D02*
X93492105Y-81692720D01*
X93492105Y-81692720D02*
X93425438Y-81726053D01*
X93425438Y-81726053D02*
X93358772Y-81726053D01*
X93358772Y-81726053D02*
X93292105Y-81692720D01*
X93292105Y-81692720D02*
X93258772Y-81659386D01*
X93258772Y-81659386D02*
X93225438Y-81592720D01*
X93225438Y-81592720D02*
X93192105Y-81459386D01*
X93192105Y-81459386D02*
X93192105Y-81292720D01*
X93192105Y-81292720D02*
X93225438Y-81159386D01*
X93225438Y-81159386D02*
X93258772Y-81092720D01*
X93258772Y-81092720D02*
X93292105Y-81059386D01*
X93292105Y-81059386D02*
X93358772Y-81026053D01*
X94025439Y-81026053D02*
X94092105Y-81026053D01*
X94092105Y-81026053D02*
X94158772Y-81059386D01*
X94158772Y-81059386D02*
X94192105Y-81092720D01*
X94192105Y-81092720D02*
X94225439Y-81159386D01*
X94225439Y-81159386D02*
X94258772Y-81292720D01*
X94258772Y-81292720D02*
X94258772Y-81459386D01*
X94258772Y-81459386D02*
X94225439Y-81592720D01*
X94225439Y-81592720D02*
X94192105Y-81659386D01*
X94192105Y-81659386D02*
X94158772Y-81692720D01*
X94158772Y-81692720D02*
X94092105Y-81726053D01*
X94092105Y-81726053D02*
X94025439Y-81726053D01*
X94025439Y-81726053D02*
X93958772Y-81692720D01*
X93958772Y-81692720D02*
X93925439Y-81659386D01*
X93925439Y-81659386D02*
X93892105Y-81592720D01*
X93892105Y-81592720D02*
X93858772Y-81459386D01*
X93858772Y-81459386D02*
X93858772Y-81292720D01*
X93858772Y-81292720D02*
X93892105Y-81159386D01*
X93892105Y-81159386D02*
X93925439Y-81092720D01*
X93925439Y-81092720D02*
X93958772Y-81059386D01*
X93958772Y-81059386D02*
X94025439Y-81026053D01*
X87225438Y-82219681D02*
X87258771Y-82186347D01*
X87258771Y-82186347D02*
X87325438Y-82153014D01*
X87325438Y-82153014D02*
X87492105Y-82153014D01*
X87492105Y-82153014D02*
X87558771Y-82186347D01*
X87558771Y-82186347D02*
X87592105Y-82219681D01*
X87592105Y-82219681D02*
X87625438Y-82286347D01*
X87625438Y-82286347D02*
X87625438Y-82353014D01*
X87625438Y-82353014D02*
X87592105Y-82453014D01*
X87592105Y-82453014D02*
X87192105Y-82853014D01*
X87192105Y-82853014D02*
X87625438Y-82853014D01*
X87925438Y-82853014D02*
X87925438Y-82153014D01*
X87925438Y-82153014D02*
X88158772Y-82653014D01*
X88158772Y-82653014D02*
X88392105Y-82153014D01*
X88392105Y-82153014D02*
X88392105Y-82853014D01*
X88725438Y-82853014D02*
X88725438Y-82153014D01*
X88725438Y-82419681D02*
X88792105Y-82386347D01*
X88792105Y-82386347D02*
X88925438Y-82386347D01*
X88925438Y-82386347D02*
X88992105Y-82419681D01*
X88992105Y-82419681D02*
X89025438Y-82453014D01*
X89025438Y-82453014D02*
X89058772Y-82519681D01*
X89058772Y-82519681D02*
X89058772Y-82719681D01*
X89058772Y-82719681D02*
X89025438Y-82786347D01*
X89025438Y-82786347D02*
X88992105Y-82819681D01*
X88992105Y-82819681D02*
X88925438Y-82853014D01*
X88925438Y-82853014D02*
X88792105Y-82853014D01*
X88792105Y-82853014D02*
X88725438Y-82819681D01*
X89358771Y-82853014D02*
X89358771Y-82386347D01*
X89358771Y-82153014D02*
X89325438Y-82186347D01*
X89325438Y-82186347D02*
X89358771Y-82219681D01*
X89358771Y-82219681D02*
X89392105Y-82186347D01*
X89392105Y-82186347D02*
X89358771Y-82153014D01*
X89358771Y-82153014D02*
X89358771Y-82219681D01*
X89592104Y-82386347D02*
X89858771Y-82386347D01*
X89692104Y-82153014D02*
X89692104Y-82753014D01*
X89692104Y-82753014D02*
X89725438Y-82819681D01*
X89725438Y-82819681D02*
X89792104Y-82853014D01*
X89792104Y-82853014D02*
X89858771Y-82853014D01*
X90592104Y-82219681D02*
X90625437Y-82186347D01*
X90625437Y-82186347D02*
X90692104Y-82153014D01*
X90692104Y-82153014D02*
X90858771Y-82153014D01*
X90858771Y-82153014D02*
X90925437Y-82186347D01*
X90925437Y-82186347D02*
X90958771Y-82219681D01*
X90958771Y-82219681D02*
X90992104Y-82286347D01*
X90992104Y-82286347D02*
X90992104Y-82353014D01*
X90992104Y-82353014D02*
X90958771Y-82453014D01*
X90958771Y-82453014D02*
X90558771Y-82853014D01*
X90558771Y-82853014D02*
X90992104Y-82853014D01*
X91325438Y-82853014D02*
X91458771Y-82853014D01*
X91458771Y-82853014D02*
X91525438Y-82819681D01*
X91525438Y-82819681D02*
X91558771Y-82786347D01*
X91558771Y-82786347D02*
X91625438Y-82686347D01*
X91625438Y-82686347D02*
X91658771Y-82553014D01*
X91658771Y-82553014D02*
X91658771Y-82286347D01*
X91658771Y-82286347D02*
X91625438Y-82219681D01*
X91625438Y-82219681D02*
X91592104Y-82186347D01*
X91592104Y-82186347D02*
X91525438Y-82153014D01*
X91525438Y-82153014D02*
X91392104Y-82153014D01*
X91392104Y-82153014D02*
X91325438Y-82186347D01*
X91325438Y-82186347D02*
X91292104Y-82219681D01*
X91292104Y-82219681D02*
X91258771Y-82286347D01*
X91258771Y-82286347D02*
X91258771Y-82453014D01*
X91258771Y-82453014D02*
X91292104Y-82519681D01*
X91292104Y-82519681D02*
X91325438Y-82553014D01*
X91325438Y-82553014D02*
X91392104Y-82586347D01*
X91392104Y-82586347D02*
X91525438Y-82586347D01*
X91525438Y-82586347D02*
X91592104Y-82553014D01*
X91592104Y-82553014D02*
X91625438Y-82519681D01*
X91625438Y-82519681D02*
X91658771Y-82453014D01*
X92192105Y-82486347D02*
X91958771Y-82486347D01*
X91958771Y-82853014D02*
X91958771Y-82153014D01*
X91958771Y-82153014D02*
X92292105Y-82153014D01*
X92525438Y-82219681D02*
X92558771Y-82186347D01*
X92558771Y-82186347D02*
X92625438Y-82153014D01*
X92625438Y-82153014D02*
X92792105Y-82153014D01*
X92792105Y-82153014D02*
X92858771Y-82186347D01*
X92858771Y-82186347D02*
X92892105Y-82219681D01*
X92892105Y-82219681D02*
X92925438Y-82286347D01*
X92925438Y-82286347D02*
X92925438Y-82353014D01*
X92925438Y-82353014D02*
X92892105Y-82453014D01*
X92892105Y-82453014D02*
X92492105Y-82853014D01*
X92492105Y-82853014D02*
X92925438Y-82853014D01*
X93358772Y-82153014D02*
X93425438Y-82153014D01*
X93425438Y-82153014D02*
X93492105Y-82186347D01*
X93492105Y-82186347D02*
X93525438Y-82219681D01*
X93525438Y-82219681D02*
X93558772Y-82286347D01*
X93558772Y-82286347D02*
X93592105Y-82419681D01*
X93592105Y-82419681D02*
X93592105Y-82586347D01*
X93592105Y-82586347D02*
X93558772Y-82719681D01*
X93558772Y-82719681D02*
X93525438Y-82786347D01*
X93525438Y-82786347D02*
X93492105Y-82819681D01*
X93492105Y-82819681D02*
X93425438Y-82853014D01*
X93425438Y-82853014D02*
X93358772Y-82853014D01*
X93358772Y-82853014D02*
X93292105Y-82819681D01*
X93292105Y-82819681D02*
X93258772Y-82786347D01*
X93258772Y-82786347D02*
X93225438Y-82719681D01*
X93225438Y-82719681D02*
X93192105Y-82586347D01*
X93192105Y-82586347D02*
X93192105Y-82419681D01*
X93192105Y-82419681D02*
X93225438Y-82286347D01*
X93225438Y-82286347D02*
X93258772Y-82219681D01*
X93258772Y-82219681D02*
X93292105Y-82186347D01*
X93292105Y-82186347D02*
X93358772Y-82153014D01*
X94025439Y-82153014D02*
X94092105Y-82153014D01*
X94092105Y-82153014D02*
X94158772Y-82186347D01*
X94158772Y-82186347D02*
X94192105Y-82219681D01*
X94192105Y-82219681D02*
X94225439Y-82286347D01*
X94225439Y-82286347D02*
X94258772Y-82419681D01*
X94258772Y-82419681D02*
X94258772Y-82586347D01*
X94258772Y-82586347D02*
X94225439Y-82719681D01*
X94225439Y-82719681D02*
X94192105Y-82786347D01*
X94192105Y-82786347D02*
X94158772Y-82819681D01*
X94158772Y-82819681D02*
X94092105Y-82853014D01*
X94092105Y-82853014D02*
X94025439Y-82853014D01*
X94025439Y-82853014D02*
X93958772Y-82819681D01*
X93958772Y-82819681D02*
X93925439Y-82786347D01*
X93925439Y-82786347D02*
X93892105Y-82719681D01*
X93892105Y-82719681D02*
X93858772Y-82586347D01*
X93858772Y-82586347D02*
X93858772Y-82419681D01*
X93858772Y-82419681D02*
X93892105Y-82286347D01*
X93892105Y-82286347D02*
X93925439Y-82219681D01*
X93925439Y-82219681D02*
X93958772Y-82186347D01*
X93958772Y-82186347D02*
X94025439Y-82153014D01*
X87625438Y-83979975D02*
X87225438Y-83979975D01*
X87425438Y-83979975D02*
X87425438Y-83279975D01*
X87425438Y-83279975D02*
X87358771Y-83379975D01*
X87358771Y-83379975D02*
X87292105Y-83446642D01*
X87292105Y-83446642D02*
X87225438Y-83479975D01*
X87925438Y-83979975D02*
X87925438Y-83279975D01*
X87925438Y-83279975D02*
X88158772Y-83779975D01*
X88158772Y-83779975D02*
X88392105Y-83279975D01*
X88392105Y-83279975D02*
X88392105Y-83979975D01*
X88725438Y-83979975D02*
X88725438Y-83279975D01*
X88725438Y-83546642D02*
X88792105Y-83513308D01*
X88792105Y-83513308D02*
X88925438Y-83513308D01*
X88925438Y-83513308D02*
X88992105Y-83546642D01*
X88992105Y-83546642D02*
X89025438Y-83579975D01*
X89025438Y-83579975D02*
X89058772Y-83646642D01*
X89058772Y-83646642D02*
X89058772Y-83846642D01*
X89058772Y-83846642D02*
X89025438Y-83913308D01*
X89025438Y-83913308D02*
X88992105Y-83946642D01*
X88992105Y-83946642D02*
X88925438Y-83979975D01*
X88925438Y-83979975D02*
X88792105Y-83979975D01*
X88792105Y-83979975D02*
X88725438Y-83946642D01*
X89358771Y-83979975D02*
X89358771Y-83513308D01*
X89358771Y-83279975D02*
X89325438Y-83313308D01*
X89325438Y-83313308D02*
X89358771Y-83346642D01*
X89358771Y-83346642D02*
X89392105Y-83313308D01*
X89392105Y-83313308D02*
X89358771Y-83279975D01*
X89358771Y-83279975D02*
X89358771Y-83346642D01*
X89592104Y-83513308D02*
X89858771Y-83513308D01*
X89692104Y-83279975D02*
X89692104Y-83879975D01*
X89692104Y-83879975D02*
X89725438Y-83946642D01*
X89725438Y-83946642D02*
X89792104Y-83979975D01*
X89792104Y-83979975D02*
X89858771Y-83979975D01*
X90592104Y-83346642D02*
X90625437Y-83313308D01*
X90625437Y-83313308D02*
X90692104Y-83279975D01*
X90692104Y-83279975D02*
X90858771Y-83279975D01*
X90858771Y-83279975D02*
X90925437Y-83313308D01*
X90925437Y-83313308D02*
X90958771Y-83346642D01*
X90958771Y-83346642D02*
X90992104Y-83413308D01*
X90992104Y-83413308D02*
X90992104Y-83479975D01*
X90992104Y-83479975D02*
X90958771Y-83579975D01*
X90958771Y-83579975D02*
X90558771Y-83979975D01*
X90558771Y-83979975D02*
X90992104Y-83979975D01*
X91325438Y-83979975D02*
X91458771Y-83979975D01*
X91458771Y-83979975D02*
X91525438Y-83946642D01*
X91525438Y-83946642D02*
X91558771Y-83913308D01*
X91558771Y-83913308D02*
X91625438Y-83813308D01*
X91625438Y-83813308D02*
X91658771Y-83679975D01*
X91658771Y-83679975D02*
X91658771Y-83413308D01*
X91658771Y-83413308D02*
X91625438Y-83346642D01*
X91625438Y-83346642D02*
X91592104Y-83313308D01*
X91592104Y-83313308D02*
X91525438Y-83279975D01*
X91525438Y-83279975D02*
X91392104Y-83279975D01*
X91392104Y-83279975D02*
X91325438Y-83313308D01*
X91325438Y-83313308D02*
X91292104Y-83346642D01*
X91292104Y-83346642D02*
X91258771Y-83413308D01*
X91258771Y-83413308D02*
X91258771Y-83579975D01*
X91258771Y-83579975D02*
X91292104Y-83646642D01*
X91292104Y-83646642D02*
X91325438Y-83679975D01*
X91325438Y-83679975D02*
X91392104Y-83713308D01*
X91392104Y-83713308D02*
X91525438Y-83713308D01*
X91525438Y-83713308D02*
X91592104Y-83679975D01*
X91592104Y-83679975D02*
X91625438Y-83646642D01*
X91625438Y-83646642D02*
X91658771Y-83579975D01*
X92192105Y-83613308D02*
X91958771Y-83613308D01*
X91958771Y-83979975D02*
X91958771Y-83279975D01*
X91958771Y-83279975D02*
X92292105Y-83279975D01*
X92925438Y-83979975D02*
X92525438Y-83979975D01*
X92725438Y-83979975D02*
X92725438Y-83279975D01*
X92725438Y-83279975D02*
X92658771Y-83379975D01*
X92658771Y-83379975D02*
X92592105Y-83446642D01*
X92592105Y-83446642D02*
X92525438Y-83479975D01*
X93358772Y-83279975D02*
X93425438Y-83279975D01*
X93425438Y-83279975D02*
X93492105Y-83313308D01*
X93492105Y-83313308D02*
X93525438Y-83346642D01*
X93525438Y-83346642D02*
X93558772Y-83413308D01*
X93558772Y-83413308D02*
X93592105Y-83546642D01*
X93592105Y-83546642D02*
X93592105Y-83713308D01*
X93592105Y-83713308D02*
X93558772Y-83846642D01*
X93558772Y-83846642D02*
X93525438Y-83913308D01*
X93525438Y-83913308D02*
X93492105Y-83946642D01*
X93492105Y-83946642D02*
X93425438Y-83979975D01*
X93425438Y-83979975D02*
X93358772Y-83979975D01*
X93358772Y-83979975D02*
X93292105Y-83946642D01*
X93292105Y-83946642D02*
X93258772Y-83913308D01*
X93258772Y-83913308D02*
X93225438Y-83846642D01*
X93225438Y-83846642D02*
X93192105Y-83713308D01*
X93192105Y-83713308D02*
X93192105Y-83546642D01*
X93192105Y-83546642D02*
X93225438Y-83413308D01*
X93225438Y-83413308D02*
X93258772Y-83346642D01*
X93258772Y-83346642D02*
X93292105Y-83313308D01*
X93292105Y-83313308D02*
X93358772Y-83279975D01*
X94025439Y-83279975D02*
X94092105Y-83279975D01*
X94092105Y-83279975D02*
X94158772Y-83313308D01*
X94158772Y-83313308D02*
X94192105Y-83346642D01*
X94192105Y-83346642D02*
X94225439Y-83413308D01*
X94225439Y-83413308D02*
X94258772Y-83546642D01*
X94258772Y-83546642D02*
X94258772Y-83713308D01*
X94258772Y-83713308D02*
X94225439Y-83846642D01*
X94225439Y-83846642D02*
X94192105Y-83913308D01*
X94192105Y-83913308D02*
X94158772Y-83946642D01*
X94158772Y-83946642D02*
X94092105Y-83979975D01*
X94092105Y-83979975D02*
X94025439Y-83979975D01*
X94025439Y-83979975D02*
X93958772Y-83946642D01*
X93958772Y-83946642D02*
X93925439Y-83913308D01*
X93925439Y-83913308D02*
X93892105Y-83846642D01*
X93892105Y-83846642D02*
X93858772Y-83713308D01*
X93858772Y-83713308D02*
X93858772Y-83546642D01*
X93858772Y-83546642D02*
X93892105Y-83413308D01*
X93892105Y-83413308D02*
X93925439Y-83346642D01*
X93925439Y-83346642D02*
X93958772Y-83313308D01*
X93958772Y-83313308D02*
X94025439Y-83279975D01*
X75759386Y-89483333D02*
X76226053Y-89483333D01*
X75492720Y-89650000D02*
X75992720Y-89816666D01*
X75992720Y-89816666D02*
X75992720Y-89383333D01*
X76226053Y-89116666D02*
X75526053Y-89116666D01*
X75526053Y-89116666D02*
X76026053Y-88883333D01*
X76026053Y-88883333D02*
X75526053Y-88649999D01*
X75526053Y-88649999D02*
X76226053Y-88649999D01*
X76226053Y-88316666D02*
X75526053Y-88316666D01*
X75792720Y-88316666D02*
X75759386Y-88249999D01*
X75759386Y-88249999D02*
X75759386Y-88116666D01*
X75759386Y-88116666D02*
X75792720Y-88049999D01*
X75792720Y-88049999D02*
X75826053Y-88016666D01*
X75826053Y-88016666D02*
X75892720Y-87983333D01*
X75892720Y-87983333D02*
X76092720Y-87983333D01*
X76092720Y-87983333D02*
X76159386Y-88016666D01*
X76159386Y-88016666D02*
X76192720Y-88049999D01*
X76192720Y-88049999D02*
X76226053Y-88116666D01*
X76226053Y-88116666D02*
X76226053Y-88249999D01*
X76226053Y-88249999D02*
X76192720Y-88316666D01*
X76226053Y-87683333D02*
X75759386Y-87683333D01*
X75526053Y-87683333D02*
X75559386Y-87716666D01*
X75559386Y-87716666D02*
X75592720Y-87683333D01*
X75592720Y-87683333D02*
X75559386Y-87650000D01*
X75559386Y-87650000D02*
X75526053Y-87683333D01*
X75526053Y-87683333D02*
X75592720Y-87683333D01*
X75759386Y-87450000D02*
X75759386Y-87183333D01*
X75526053Y-87350000D02*
X76126053Y-87350000D01*
X76126053Y-87350000D02*
X76192720Y-87316667D01*
X76192720Y-87316667D02*
X76226053Y-87250000D01*
X76226053Y-87250000D02*
X76226053Y-87183333D01*
X75592720Y-86450000D02*
X75559386Y-86416667D01*
X75559386Y-86416667D02*
X75526053Y-86350000D01*
X75526053Y-86350000D02*
X75526053Y-86183334D01*
X75526053Y-86183334D02*
X75559386Y-86116667D01*
X75559386Y-86116667D02*
X75592720Y-86083334D01*
X75592720Y-86083334D02*
X75659386Y-86050000D01*
X75659386Y-86050000D02*
X75726053Y-86050000D01*
X75726053Y-86050000D02*
X75826053Y-86083334D01*
X75826053Y-86083334D02*
X76226053Y-86483334D01*
X76226053Y-86483334D02*
X76226053Y-86050000D01*
X75526053Y-85816667D02*
X75526053Y-85350000D01*
X75526053Y-85350000D02*
X76226053Y-85650000D01*
X76159386Y-84683333D02*
X76192720Y-84716666D01*
X76192720Y-84716666D02*
X76226053Y-84816666D01*
X76226053Y-84816666D02*
X76226053Y-84883333D01*
X76226053Y-84883333D02*
X76192720Y-84983333D01*
X76192720Y-84983333D02*
X76126053Y-85050000D01*
X76126053Y-85050000D02*
X76059386Y-85083333D01*
X76059386Y-85083333D02*
X75926053Y-85116666D01*
X75926053Y-85116666D02*
X75826053Y-85116666D01*
X75826053Y-85116666D02*
X75692720Y-85083333D01*
X75692720Y-85083333D02*
X75626053Y-85050000D01*
X75626053Y-85050000D02*
X75559386Y-84983333D01*
X75559386Y-84983333D02*
X75526053Y-84883333D01*
X75526053Y-84883333D02*
X75526053Y-84816666D01*
X75526053Y-84816666D02*
X75559386Y-84716666D01*
X75559386Y-84716666D02*
X75592720Y-84683333D01*
X75526053Y-84250000D02*
X75526053Y-84183333D01*
X75526053Y-84183333D02*
X75559386Y-84116666D01*
X75559386Y-84116666D02*
X75592720Y-84083333D01*
X75592720Y-84083333D02*
X75659386Y-84050000D01*
X75659386Y-84050000D02*
X75792720Y-84016666D01*
X75792720Y-84016666D02*
X75959386Y-84016666D01*
X75959386Y-84016666D02*
X76092720Y-84050000D01*
X76092720Y-84050000D02*
X76159386Y-84083333D01*
X76159386Y-84083333D02*
X76192720Y-84116666D01*
X76192720Y-84116666D02*
X76226053Y-84183333D01*
X76226053Y-84183333D02*
X76226053Y-84250000D01*
X76226053Y-84250000D02*
X76192720Y-84316666D01*
X76192720Y-84316666D02*
X76159386Y-84350000D01*
X76159386Y-84350000D02*
X76092720Y-84383333D01*
X76092720Y-84383333D02*
X75959386Y-84416666D01*
X75959386Y-84416666D02*
X75792720Y-84416666D01*
X75792720Y-84416666D02*
X75659386Y-84383333D01*
X75659386Y-84383333D02*
X75592720Y-84350000D01*
X75592720Y-84350000D02*
X75559386Y-84316666D01*
X75559386Y-84316666D02*
X75526053Y-84250000D01*
X75759386Y-83416666D02*
X76226053Y-83416666D01*
X75492720Y-83583333D02*
X75992720Y-83749999D01*
X75992720Y-83749999D02*
X75992720Y-83316666D01*
X75526053Y-82916666D02*
X75526053Y-82849999D01*
X75526053Y-82849999D02*
X75559386Y-82783332D01*
X75559386Y-82783332D02*
X75592720Y-82749999D01*
X75592720Y-82749999D02*
X75659386Y-82716666D01*
X75659386Y-82716666D02*
X75792720Y-82683332D01*
X75792720Y-82683332D02*
X75959386Y-82683332D01*
X75959386Y-82683332D02*
X76092720Y-82716666D01*
X76092720Y-82716666D02*
X76159386Y-82749999D01*
X76159386Y-82749999D02*
X76192720Y-82783332D01*
X76192720Y-82783332D02*
X76226053Y-82849999D01*
X76226053Y-82849999D02*
X76226053Y-82916666D01*
X76226053Y-82916666D02*
X76192720Y-82983332D01*
X76192720Y-82983332D02*
X76159386Y-83016666D01*
X76159386Y-83016666D02*
X76092720Y-83049999D01*
X76092720Y-83049999D02*
X75959386Y-83083332D01*
X75959386Y-83083332D02*
X75792720Y-83083332D01*
X75792720Y-83083332D02*
X75659386Y-83049999D01*
X75659386Y-83049999D02*
X75592720Y-83016666D01*
X75592720Y-83016666D02*
X75559386Y-82983332D01*
X75559386Y-82983332D02*
X75526053Y-82916666D01*
X76719681Y-89816666D02*
X76686347Y-89783333D01*
X76686347Y-89783333D02*
X76653014Y-89716666D01*
X76653014Y-89716666D02*
X76653014Y-89550000D01*
X76653014Y-89550000D02*
X76686347Y-89483333D01*
X76686347Y-89483333D02*
X76719681Y-89450000D01*
X76719681Y-89450000D02*
X76786347Y-89416666D01*
X76786347Y-89416666D02*
X76853014Y-89416666D01*
X76853014Y-89416666D02*
X76953014Y-89450000D01*
X76953014Y-89450000D02*
X77353014Y-89850000D01*
X77353014Y-89850000D02*
X77353014Y-89416666D01*
X77353014Y-89116666D02*
X76653014Y-89116666D01*
X76653014Y-89116666D02*
X77153014Y-88883333D01*
X77153014Y-88883333D02*
X76653014Y-88649999D01*
X76653014Y-88649999D02*
X77353014Y-88649999D01*
X77353014Y-88316666D02*
X76653014Y-88316666D01*
X76919681Y-88316666D02*
X76886347Y-88249999D01*
X76886347Y-88249999D02*
X76886347Y-88116666D01*
X76886347Y-88116666D02*
X76919681Y-88049999D01*
X76919681Y-88049999D02*
X76953014Y-88016666D01*
X76953014Y-88016666D02*
X77019681Y-87983333D01*
X77019681Y-87983333D02*
X77219681Y-87983333D01*
X77219681Y-87983333D02*
X77286347Y-88016666D01*
X77286347Y-88016666D02*
X77319681Y-88049999D01*
X77319681Y-88049999D02*
X77353014Y-88116666D01*
X77353014Y-88116666D02*
X77353014Y-88249999D01*
X77353014Y-88249999D02*
X77319681Y-88316666D01*
X77353014Y-87683333D02*
X76886347Y-87683333D01*
X76653014Y-87683333D02*
X76686347Y-87716666D01*
X76686347Y-87716666D02*
X76719681Y-87683333D01*
X76719681Y-87683333D02*
X76686347Y-87650000D01*
X76686347Y-87650000D02*
X76653014Y-87683333D01*
X76653014Y-87683333D02*
X76719681Y-87683333D01*
X76886347Y-87450000D02*
X76886347Y-87183333D01*
X76653014Y-87350000D02*
X77253014Y-87350000D01*
X77253014Y-87350000D02*
X77319681Y-87316667D01*
X77319681Y-87316667D02*
X77353014Y-87250000D01*
X77353014Y-87250000D02*
X77353014Y-87183333D01*
X76719681Y-86450000D02*
X76686347Y-86416667D01*
X76686347Y-86416667D02*
X76653014Y-86350000D01*
X76653014Y-86350000D02*
X76653014Y-86183334D01*
X76653014Y-86183334D02*
X76686347Y-86116667D01*
X76686347Y-86116667D02*
X76719681Y-86083334D01*
X76719681Y-86083334D02*
X76786347Y-86050000D01*
X76786347Y-86050000D02*
X76853014Y-86050000D01*
X76853014Y-86050000D02*
X76953014Y-86083334D01*
X76953014Y-86083334D02*
X77353014Y-86483334D01*
X77353014Y-86483334D02*
X77353014Y-86050000D01*
X76653014Y-85816667D02*
X76653014Y-85350000D01*
X76653014Y-85350000D02*
X77353014Y-85650000D01*
X77286347Y-84683333D02*
X77319681Y-84716666D01*
X77319681Y-84716666D02*
X77353014Y-84816666D01*
X77353014Y-84816666D02*
X77353014Y-84883333D01*
X77353014Y-84883333D02*
X77319681Y-84983333D01*
X77319681Y-84983333D02*
X77253014Y-85050000D01*
X77253014Y-85050000D02*
X77186347Y-85083333D01*
X77186347Y-85083333D02*
X77053014Y-85116666D01*
X77053014Y-85116666D02*
X76953014Y-85116666D01*
X76953014Y-85116666D02*
X76819681Y-85083333D01*
X76819681Y-85083333D02*
X76753014Y-85050000D01*
X76753014Y-85050000D02*
X76686347Y-84983333D01*
X76686347Y-84983333D02*
X76653014Y-84883333D01*
X76653014Y-84883333D02*
X76653014Y-84816666D01*
X76653014Y-84816666D02*
X76686347Y-84716666D01*
X76686347Y-84716666D02*
X76719681Y-84683333D01*
X76653014Y-84250000D02*
X76653014Y-84183333D01*
X76653014Y-84183333D02*
X76686347Y-84116666D01*
X76686347Y-84116666D02*
X76719681Y-84083333D01*
X76719681Y-84083333D02*
X76786347Y-84050000D01*
X76786347Y-84050000D02*
X76919681Y-84016666D01*
X76919681Y-84016666D02*
X77086347Y-84016666D01*
X77086347Y-84016666D02*
X77219681Y-84050000D01*
X77219681Y-84050000D02*
X77286347Y-84083333D01*
X77286347Y-84083333D02*
X77319681Y-84116666D01*
X77319681Y-84116666D02*
X77353014Y-84183333D01*
X77353014Y-84183333D02*
X77353014Y-84250000D01*
X77353014Y-84250000D02*
X77319681Y-84316666D01*
X77319681Y-84316666D02*
X77286347Y-84350000D01*
X77286347Y-84350000D02*
X77219681Y-84383333D01*
X77219681Y-84383333D02*
X77086347Y-84416666D01*
X77086347Y-84416666D02*
X76919681Y-84416666D01*
X76919681Y-84416666D02*
X76786347Y-84383333D01*
X76786347Y-84383333D02*
X76719681Y-84350000D01*
X76719681Y-84350000D02*
X76686347Y-84316666D01*
X76686347Y-84316666D02*
X76653014Y-84250000D01*
X76719681Y-83749999D02*
X76686347Y-83716666D01*
X76686347Y-83716666D02*
X76653014Y-83649999D01*
X76653014Y-83649999D02*
X76653014Y-83483333D01*
X76653014Y-83483333D02*
X76686347Y-83416666D01*
X76686347Y-83416666D02*
X76719681Y-83383333D01*
X76719681Y-83383333D02*
X76786347Y-83349999D01*
X76786347Y-83349999D02*
X76853014Y-83349999D01*
X76853014Y-83349999D02*
X76953014Y-83383333D01*
X76953014Y-83383333D02*
X77353014Y-83783333D01*
X77353014Y-83783333D02*
X77353014Y-83349999D01*
X76653014Y-82916666D02*
X76653014Y-82849999D01*
X76653014Y-82849999D02*
X76686347Y-82783332D01*
X76686347Y-82783332D02*
X76719681Y-82749999D01*
X76719681Y-82749999D02*
X76786347Y-82716666D01*
X76786347Y-82716666D02*
X76919681Y-82683332D01*
X76919681Y-82683332D02*
X77086347Y-82683332D01*
X77086347Y-82683332D02*
X77219681Y-82716666D01*
X77219681Y-82716666D02*
X77286347Y-82749999D01*
X77286347Y-82749999D02*
X77319681Y-82783332D01*
X77319681Y-82783332D02*
X77353014Y-82849999D01*
X77353014Y-82849999D02*
X77353014Y-82916666D01*
X77353014Y-82916666D02*
X77319681Y-82983332D01*
X77319681Y-82983332D02*
X77286347Y-83016666D01*
X77286347Y-83016666D02*
X77219681Y-83049999D01*
X77219681Y-83049999D02*
X77086347Y-83083332D01*
X77086347Y-83083332D02*
X76919681Y-83083332D01*
X76919681Y-83083332D02*
X76786347Y-83049999D01*
X76786347Y-83049999D02*
X76719681Y-83016666D01*
X76719681Y-83016666D02*
X76686347Y-82983332D01*
X76686347Y-82983332D02*
X76653014Y-82916666D01*
X78479975Y-89416666D02*
X78479975Y-89816666D01*
X78479975Y-89616666D02*
X77779975Y-89616666D01*
X77779975Y-89616666D02*
X77879975Y-89683333D01*
X77879975Y-89683333D02*
X77946642Y-89750000D01*
X77946642Y-89750000D02*
X77979975Y-89816666D01*
X78479975Y-89116666D02*
X77779975Y-89116666D01*
X77779975Y-89116666D02*
X78279975Y-88883333D01*
X78279975Y-88883333D02*
X77779975Y-88649999D01*
X77779975Y-88649999D02*
X78479975Y-88649999D01*
X78479975Y-88316666D02*
X77779975Y-88316666D01*
X78046642Y-88316666D02*
X78013308Y-88249999D01*
X78013308Y-88249999D02*
X78013308Y-88116666D01*
X78013308Y-88116666D02*
X78046642Y-88049999D01*
X78046642Y-88049999D02*
X78079975Y-88016666D01*
X78079975Y-88016666D02*
X78146642Y-87983333D01*
X78146642Y-87983333D02*
X78346642Y-87983333D01*
X78346642Y-87983333D02*
X78413308Y-88016666D01*
X78413308Y-88016666D02*
X78446642Y-88049999D01*
X78446642Y-88049999D02*
X78479975Y-88116666D01*
X78479975Y-88116666D02*
X78479975Y-88249999D01*
X78479975Y-88249999D02*
X78446642Y-88316666D01*
X78479975Y-87683333D02*
X78013308Y-87683333D01*
X77779975Y-87683333D02*
X77813308Y-87716666D01*
X77813308Y-87716666D02*
X77846642Y-87683333D01*
X77846642Y-87683333D02*
X77813308Y-87650000D01*
X77813308Y-87650000D02*
X77779975Y-87683333D01*
X77779975Y-87683333D02*
X77846642Y-87683333D01*
X78013308Y-87450000D02*
X78013308Y-87183333D01*
X77779975Y-87350000D02*
X78379975Y-87350000D01*
X78379975Y-87350000D02*
X78446642Y-87316667D01*
X78446642Y-87316667D02*
X78479975Y-87250000D01*
X78479975Y-87250000D02*
X78479975Y-87183333D01*
X77846642Y-86450000D02*
X77813308Y-86416667D01*
X77813308Y-86416667D02*
X77779975Y-86350000D01*
X77779975Y-86350000D02*
X77779975Y-86183334D01*
X77779975Y-86183334D02*
X77813308Y-86116667D01*
X77813308Y-86116667D02*
X77846642Y-86083334D01*
X77846642Y-86083334D02*
X77913308Y-86050000D01*
X77913308Y-86050000D02*
X77979975Y-86050000D01*
X77979975Y-86050000D02*
X78079975Y-86083334D01*
X78079975Y-86083334D02*
X78479975Y-86483334D01*
X78479975Y-86483334D02*
X78479975Y-86050000D01*
X77779975Y-85816667D02*
X77779975Y-85350000D01*
X77779975Y-85350000D02*
X78479975Y-85650000D01*
X78413308Y-84683333D02*
X78446642Y-84716666D01*
X78446642Y-84716666D02*
X78479975Y-84816666D01*
X78479975Y-84816666D02*
X78479975Y-84883333D01*
X78479975Y-84883333D02*
X78446642Y-84983333D01*
X78446642Y-84983333D02*
X78379975Y-85050000D01*
X78379975Y-85050000D02*
X78313308Y-85083333D01*
X78313308Y-85083333D02*
X78179975Y-85116666D01*
X78179975Y-85116666D02*
X78079975Y-85116666D01*
X78079975Y-85116666D02*
X77946642Y-85083333D01*
X77946642Y-85083333D02*
X77879975Y-85050000D01*
X77879975Y-85050000D02*
X77813308Y-84983333D01*
X77813308Y-84983333D02*
X77779975Y-84883333D01*
X77779975Y-84883333D02*
X77779975Y-84816666D01*
X77779975Y-84816666D02*
X77813308Y-84716666D01*
X77813308Y-84716666D02*
X77846642Y-84683333D01*
X77779975Y-84250000D02*
X77779975Y-84183333D01*
X77779975Y-84183333D02*
X77813308Y-84116666D01*
X77813308Y-84116666D02*
X77846642Y-84083333D01*
X77846642Y-84083333D02*
X77913308Y-84050000D01*
X77913308Y-84050000D02*
X78046642Y-84016666D01*
X78046642Y-84016666D02*
X78213308Y-84016666D01*
X78213308Y-84016666D02*
X78346642Y-84050000D01*
X78346642Y-84050000D02*
X78413308Y-84083333D01*
X78413308Y-84083333D02*
X78446642Y-84116666D01*
X78446642Y-84116666D02*
X78479975Y-84183333D01*
X78479975Y-84183333D02*
X78479975Y-84250000D01*
X78479975Y-84250000D02*
X78446642Y-84316666D01*
X78446642Y-84316666D02*
X78413308Y-84350000D01*
X78413308Y-84350000D02*
X78346642Y-84383333D01*
X78346642Y-84383333D02*
X78213308Y-84416666D01*
X78213308Y-84416666D02*
X78046642Y-84416666D01*
X78046642Y-84416666D02*
X77913308Y-84383333D01*
X77913308Y-84383333D02*
X77846642Y-84350000D01*
X77846642Y-84350000D02*
X77813308Y-84316666D01*
X77813308Y-84316666D02*
X77779975Y-84250000D01*
X78479975Y-83349999D02*
X78479975Y-83749999D01*
X78479975Y-83549999D02*
X77779975Y-83549999D01*
X77779975Y-83549999D02*
X77879975Y-83616666D01*
X77879975Y-83616666D02*
X77946642Y-83683333D01*
X77946642Y-83683333D02*
X77979975Y-83749999D01*
X77779975Y-82916666D02*
X77779975Y-82849999D01*
X77779975Y-82849999D02*
X77813308Y-82783332D01*
X77813308Y-82783332D02*
X77846642Y-82749999D01*
X77846642Y-82749999D02*
X77913308Y-82716666D01*
X77913308Y-82716666D02*
X78046642Y-82683332D01*
X78046642Y-82683332D02*
X78213308Y-82683332D01*
X78213308Y-82683332D02*
X78346642Y-82716666D01*
X78346642Y-82716666D02*
X78413308Y-82749999D01*
X78413308Y-82749999D02*
X78446642Y-82783332D01*
X78446642Y-82783332D02*
X78479975Y-82849999D01*
X78479975Y-82849999D02*
X78479975Y-82916666D01*
X78479975Y-82916666D02*
X78446642Y-82983332D01*
X78446642Y-82983332D02*
X78413308Y-83016666D01*
X78413308Y-83016666D02*
X78346642Y-83049999D01*
X78346642Y-83049999D02*
X78213308Y-83083332D01*
X78213308Y-83083332D02*
X78046642Y-83083332D01*
X78046642Y-83083332D02*
X77913308Y-83049999D01*
X77913308Y-83049999D02*
X77846642Y-83016666D01*
X77846642Y-83016666D02*
X77813308Y-82983332D01*
X77813308Y-82983332D02*
X77779975Y-82916666D01*
D11*
X75434836Y-81228133D02*
X75434836Y-80528133D01*
X75434836Y-80528133D02*
X75625312Y-80528133D01*
X75625312Y-80528133D02*
X75672931Y-80561466D01*
X75672931Y-80561466D02*
X75696741Y-80594800D01*
X75696741Y-80594800D02*
X75720550Y-80661466D01*
X75720550Y-80661466D02*
X75720550Y-80761466D01*
X75720550Y-80761466D02*
X75696741Y-80828133D01*
X75696741Y-80828133D02*
X75672931Y-80861466D01*
X75672931Y-80861466D02*
X75625312Y-80894800D01*
X75625312Y-80894800D02*
X75434836Y-80894800D01*
X75934836Y-81228133D02*
X75934836Y-80761466D01*
X75934836Y-80528133D02*
X75911027Y-80561466D01*
X75911027Y-80561466D02*
X75934836Y-80594800D01*
X75934836Y-80594800D02*
X75958646Y-80561466D01*
X75958646Y-80561466D02*
X75934836Y-80528133D01*
X75934836Y-80528133D02*
X75934836Y-80594800D01*
X76172931Y-80761466D02*
X76172931Y-81228133D01*
X76172931Y-80828133D02*
X76196741Y-80794800D01*
X76196741Y-80794800D02*
X76244360Y-80761466D01*
X76244360Y-80761466D02*
X76315788Y-80761466D01*
X76315788Y-80761466D02*
X76363407Y-80794800D01*
X76363407Y-80794800D02*
X76387217Y-80861466D01*
X76387217Y-80861466D02*
X76387217Y-81228133D01*
X77268169Y-81228133D02*
X76982455Y-81228133D01*
X77125312Y-81228133D02*
X77125312Y-80528133D01*
X77125312Y-80528133D02*
X77077693Y-80628133D01*
X77077693Y-80628133D02*
X77030074Y-80694800D01*
X77030074Y-80694800D02*
X76982455Y-80728133D01*
X78030073Y-80861466D02*
X78101501Y-80894800D01*
X78101501Y-80894800D02*
X78125311Y-80928133D01*
X78125311Y-80928133D02*
X78149120Y-80994800D01*
X78149120Y-80994800D02*
X78149120Y-81094800D01*
X78149120Y-81094800D02*
X78125311Y-81161466D01*
X78125311Y-81161466D02*
X78101501Y-81194800D01*
X78101501Y-81194800D02*
X78053882Y-81228133D01*
X78053882Y-81228133D02*
X77863406Y-81228133D01*
X77863406Y-81228133D02*
X77863406Y-80528133D01*
X77863406Y-80528133D02*
X78030073Y-80528133D01*
X78030073Y-80528133D02*
X78077692Y-80561466D01*
X78077692Y-80561466D02*
X78101501Y-80594800D01*
X78101501Y-80594800D02*
X78125311Y-80661466D01*
X78125311Y-80661466D02*
X78125311Y-80728133D01*
X78125311Y-80728133D02*
X78101501Y-80794800D01*
X78101501Y-80794800D02*
X78077692Y-80828133D01*
X78077692Y-80828133D02*
X78030073Y-80861466D01*
X78030073Y-80861466D02*
X77863406Y-80861466D01*
X78434835Y-81228133D02*
X78387216Y-81194800D01*
X78387216Y-81194800D02*
X78363406Y-81161466D01*
X78363406Y-81161466D02*
X78339597Y-81094800D01*
X78339597Y-81094800D02*
X78339597Y-80894800D01*
X78339597Y-80894800D02*
X78363406Y-80828133D01*
X78363406Y-80828133D02*
X78387216Y-80794800D01*
X78387216Y-80794800D02*
X78434835Y-80761466D01*
X78434835Y-80761466D02*
X78506263Y-80761466D01*
X78506263Y-80761466D02*
X78553882Y-80794800D01*
X78553882Y-80794800D02*
X78577692Y-80828133D01*
X78577692Y-80828133D02*
X78601501Y-80894800D01*
X78601501Y-80894800D02*
X78601501Y-81094800D01*
X78601501Y-81094800D02*
X78577692Y-81161466D01*
X78577692Y-81161466D02*
X78553882Y-81194800D01*
X78553882Y-81194800D02*
X78506263Y-81228133D01*
X78506263Y-81228133D02*
X78434835Y-81228133D01*
X78744359Y-80761466D02*
X78934835Y-80761466D01*
X78815787Y-80528133D02*
X78815787Y-81128133D01*
X78815787Y-81128133D02*
X78839597Y-81194800D01*
X78839597Y-81194800D02*
X78887216Y-81228133D01*
X78887216Y-81228133D02*
X78934835Y-81228133D01*
X79030073Y-80761466D02*
X79220549Y-80761466D01*
X79101501Y-80528133D02*
X79101501Y-81128133D01*
X79101501Y-81128133D02*
X79125311Y-81194800D01*
X79125311Y-81194800D02*
X79172930Y-81228133D01*
X79172930Y-81228133D02*
X79220549Y-81228133D01*
X79458644Y-81228133D02*
X79411025Y-81194800D01*
X79411025Y-81194800D02*
X79387215Y-81161466D01*
X79387215Y-81161466D02*
X79363406Y-81094800D01*
X79363406Y-81094800D02*
X79363406Y-80894800D01*
X79363406Y-80894800D02*
X79387215Y-80828133D01*
X79387215Y-80828133D02*
X79411025Y-80794800D01*
X79411025Y-80794800D02*
X79458644Y-80761466D01*
X79458644Y-80761466D02*
X79530072Y-80761466D01*
X79530072Y-80761466D02*
X79577691Y-80794800D01*
X79577691Y-80794800D02*
X79601501Y-80828133D01*
X79601501Y-80828133D02*
X79625310Y-80894800D01*
X79625310Y-80894800D02*
X79625310Y-81094800D01*
X79625310Y-81094800D02*
X79601501Y-81161466D01*
X79601501Y-81161466D02*
X79577691Y-81194800D01*
X79577691Y-81194800D02*
X79530072Y-81228133D01*
X79530072Y-81228133D02*
X79458644Y-81228133D01*
X79839596Y-81228133D02*
X79839596Y-80761466D01*
X79839596Y-80828133D02*
X79863406Y-80794800D01*
X79863406Y-80794800D02*
X79911025Y-80761466D01*
X79911025Y-80761466D02*
X79982453Y-80761466D01*
X79982453Y-80761466D02*
X80030072Y-80794800D01*
X80030072Y-80794800D02*
X80053882Y-80861466D01*
X80053882Y-80861466D02*
X80053882Y-81228133D01*
X80053882Y-80861466D02*
X80077691Y-80794800D01*
X80077691Y-80794800D02*
X80125310Y-80761466D01*
X80125310Y-80761466D02*
X80196739Y-80761466D01*
X80196739Y-80761466D02*
X80244358Y-80794800D01*
X80244358Y-80794800D02*
X80268168Y-80861466D01*
X80268168Y-80861466D02*
X80268168Y-81228133D01*
X80958644Y-81228133D02*
X80911025Y-81194800D01*
X80911025Y-81194800D02*
X80887215Y-81161466D01*
X80887215Y-81161466D02*
X80863406Y-81094800D01*
X80863406Y-81094800D02*
X80863406Y-80894800D01*
X80863406Y-80894800D02*
X80887215Y-80828133D01*
X80887215Y-80828133D02*
X80911025Y-80794800D01*
X80911025Y-80794800D02*
X80958644Y-80761466D01*
X80958644Y-80761466D02*
X81030072Y-80761466D01*
X81030072Y-80761466D02*
X81077691Y-80794800D01*
X81077691Y-80794800D02*
X81101501Y-80828133D01*
X81101501Y-80828133D02*
X81125310Y-80894800D01*
X81125310Y-80894800D02*
X81125310Y-81094800D01*
X81125310Y-81094800D02*
X81101501Y-81161466D01*
X81101501Y-81161466D02*
X81077691Y-81194800D01*
X81077691Y-81194800D02*
X81030072Y-81228133D01*
X81030072Y-81228133D02*
X80958644Y-81228133D01*
X81268168Y-80761466D02*
X81458644Y-80761466D01*
X81339596Y-81228133D02*
X81339596Y-80628133D01*
X81339596Y-80628133D02*
X81363406Y-80561466D01*
X81363406Y-80561466D02*
X81411025Y-80528133D01*
X81411025Y-80528133D02*
X81458644Y-80528133D01*
X82291976Y-81161466D02*
X82268167Y-81194800D01*
X82268167Y-81194800D02*
X82196738Y-81228133D01*
X82196738Y-81228133D02*
X82149119Y-81228133D01*
X82149119Y-81228133D02*
X82077691Y-81194800D01*
X82077691Y-81194800D02*
X82030072Y-81128133D01*
X82030072Y-81128133D02*
X82006262Y-81061466D01*
X82006262Y-81061466D02*
X81982453Y-80928133D01*
X81982453Y-80928133D02*
X81982453Y-80828133D01*
X81982453Y-80828133D02*
X82006262Y-80694800D01*
X82006262Y-80694800D02*
X82030072Y-80628133D01*
X82030072Y-80628133D02*
X82077691Y-80561466D01*
X82077691Y-80561466D02*
X82149119Y-80528133D01*
X82149119Y-80528133D02*
X82196738Y-80528133D01*
X82196738Y-80528133D02*
X82268167Y-80561466D01*
X82268167Y-80561466D02*
X82291976Y-80594800D01*
X82506262Y-81228133D02*
X82506262Y-80528133D01*
X82720548Y-81228133D02*
X82720548Y-80861466D01*
X82720548Y-80861466D02*
X82696738Y-80794800D01*
X82696738Y-80794800D02*
X82649119Y-80761466D01*
X82649119Y-80761466D02*
X82577691Y-80761466D01*
X82577691Y-80761466D02*
X82530072Y-80794800D01*
X82530072Y-80794800D02*
X82506262Y-80828133D01*
X82958643Y-81228133D02*
X82958643Y-80761466D01*
X82958643Y-80528133D02*
X82934834Y-80561466D01*
X82934834Y-80561466D02*
X82958643Y-80594800D01*
X82958643Y-80594800D02*
X82982453Y-80561466D01*
X82982453Y-80561466D02*
X82958643Y-80528133D01*
X82958643Y-80528133D02*
X82958643Y-80594800D01*
X83196738Y-80761466D02*
X83196738Y-81461466D01*
X83196738Y-80794800D02*
X83244357Y-80761466D01*
X83244357Y-80761466D02*
X83339595Y-80761466D01*
X83339595Y-80761466D02*
X83387214Y-80794800D01*
X83387214Y-80794800D02*
X83411024Y-80828133D01*
X83411024Y-80828133D02*
X83434833Y-80894800D01*
X83434833Y-80894800D02*
X83434833Y-81094800D01*
X83434833Y-81094800D02*
X83411024Y-81161466D01*
X83411024Y-81161466D02*
X83387214Y-81194800D01*
X83387214Y-81194800D02*
X83339595Y-81228133D01*
X83339595Y-81228133D02*
X83244357Y-81228133D01*
X83244357Y-81228133D02*
X83196738Y-81194800D01*
D10*
X80442720Y-89774561D02*
X80476053Y-89674561D01*
X80476053Y-89674561D02*
X80476053Y-89507895D01*
X80476053Y-89507895D02*
X80442720Y-89441228D01*
X80442720Y-89441228D02*
X80409386Y-89407895D01*
X80409386Y-89407895D02*
X80342720Y-89374561D01*
X80342720Y-89374561D02*
X80276053Y-89374561D01*
X80276053Y-89374561D02*
X80209386Y-89407895D01*
X80209386Y-89407895D02*
X80176053Y-89441228D01*
X80176053Y-89441228D02*
X80142720Y-89507895D01*
X80142720Y-89507895D02*
X80109386Y-89641228D01*
X80109386Y-89641228D02*
X80076053Y-89707895D01*
X80076053Y-89707895D02*
X80042720Y-89741228D01*
X80042720Y-89741228D02*
X79976053Y-89774561D01*
X79976053Y-89774561D02*
X79909386Y-89774561D01*
X79909386Y-89774561D02*
X79842720Y-89741228D01*
X79842720Y-89741228D02*
X79809386Y-89707895D01*
X79809386Y-89707895D02*
X79776053Y-89641228D01*
X79776053Y-89641228D02*
X79776053Y-89474561D01*
X79776053Y-89474561D02*
X79809386Y-89374561D01*
X80476053Y-89074561D02*
X79776053Y-89074561D01*
X79776053Y-89074561D02*
X80276053Y-88841228D01*
X80276053Y-88841228D02*
X79776053Y-88607894D01*
X79776053Y-88607894D02*
X80476053Y-88607894D01*
X80476053Y-88274561D02*
X79776053Y-88274561D01*
X79776053Y-88274561D02*
X79776053Y-88107894D01*
X79776053Y-88107894D02*
X79809386Y-88007894D01*
X79809386Y-88007894D02*
X79876053Y-87941228D01*
X79876053Y-87941228D02*
X79942720Y-87907894D01*
X79942720Y-87907894D02*
X80076053Y-87874561D01*
X80076053Y-87874561D02*
X80176053Y-87874561D01*
X80176053Y-87874561D02*
X80309386Y-87907894D01*
X80309386Y-87907894D02*
X80376053Y-87941228D01*
X80376053Y-87941228D02*
X80442720Y-88007894D01*
X80442720Y-88007894D02*
X80476053Y-88107894D01*
X80476053Y-88107894D02*
X80476053Y-88274561D01*
X80476053Y-86641228D02*
X80142720Y-86874561D01*
X80476053Y-87041228D02*
X79776053Y-87041228D01*
X79776053Y-87041228D02*
X79776053Y-86774561D01*
X79776053Y-86774561D02*
X79809386Y-86707895D01*
X79809386Y-86707895D02*
X79842720Y-86674561D01*
X79842720Y-86674561D02*
X79909386Y-86641228D01*
X79909386Y-86641228D02*
X80009386Y-86641228D01*
X80009386Y-86641228D02*
X80076053Y-86674561D01*
X80076053Y-86674561D02*
X80109386Y-86707895D01*
X80109386Y-86707895D02*
X80142720Y-86774561D01*
X80142720Y-86774561D02*
X80142720Y-87041228D01*
X79776053Y-86207895D02*
X79776053Y-86074561D01*
X79776053Y-86074561D02*
X79809386Y-86007895D01*
X79809386Y-86007895D02*
X79876053Y-85941228D01*
X79876053Y-85941228D02*
X80009386Y-85907895D01*
X80009386Y-85907895D02*
X80242720Y-85907895D01*
X80242720Y-85907895D02*
X80376053Y-85941228D01*
X80376053Y-85941228D02*
X80442720Y-86007895D01*
X80442720Y-86007895D02*
X80476053Y-86074561D01*
X80476053Y-86074561D02*
X80476053Y-86207895D01*
X80476053Y-86207895D02*
X80442720Y-86274561D01*
X80442720Y-86274561D02*
X80376053Y-86341228D01*
X80376053Y-86341228D02*
X80242720Y-86374561D01*
X80242720Y-86374561D02*
X80009386Y-86374561D01*
X80009386Y-86374561D02*
X79876053Y-86341228D01*
X79876053Y-86341228D02*
X79809386Y-86274561D01*
X79809386Y-86274561D02*
X79776053Y-86207895D01*
X80476053Y-85607895D02*
X79776053Y-85607895D01*
X79776053Y-85607895D02*
X80276053Y-85374562D01*
X80276053Y-85374562D02*
X79776053Y-85141228D01*
X79776053Y-85141228D02*
X80476053Y-85141228D01*
X81403014Y-89774561D02*
X81403014Y-89441228D01*
X81603014Y-89841228D02*
X80903014Y-89607895D01*
X80903014Y-89607895D02*
X81603014Y-89374561D01*
X81603014Y-88841228D02*
X80903014Y-88841228D01*
X81569681Y-88841228D02*
X81603014Y-88907895D01*
X81603014Y-88907895D02*
X81603014Y-89041228D01*
X81603014Y-89041228D02*
X81569681Y-89107895D01*
X81569681Y-89107895D02*
X81536347Y-89141228D01*
X81536347Y-89141228D02*
X81469681Y-89174561D01*
X81469681Y-89174561D02*
X81269681Y-89174561D01*
X81269681Y-89174561D02*
X81203014Y-89141228D01*
X81203014Y-89141228D02*
X81169681Y-89107895D01*
X81169681Y-89107895D02*
X81136347Y-89041228D01*
X81136347Y-89041228D02*
X81136347Y-88907895D01*
X81136347Y-88907895D02*
X81169681Y-88841228D01*
X81603014Y-88207895D02*
X81236347Y-88207895D01*
X81236347Y-88207895D02*
X81169681Y-88241228D01*
X81169681Y-88241228D02*
X81136347Y-88307895D01*
X81136347Y-88307895D02*
X81136347Y-88441228D01*
X81136347Y-88441228D02*
X81169681Y-88507895D01*
X81569681Y-88207895D02*
X81603014Y-88274562D01*
X81603014Y-88274562D02*
X81603014Y-88441228D01*
X81603014Y-88441228D02*
X81569681Y-88507895D01*
X81569681Y-88507895D02*
X81503014Y-88541228D01*
X81503014Y-88541228D02*
X81436347Y-88541228D01*
X81436347Y-88541228D02*
X81369681Y-88507895D01*
X81369681Y-88507895D02*
X81336347Y-88441228D01*
X81336347Y-88441228D02*
X81336347Y-88274562D01*
X81336347Y-88274562D02*
X81303014Y-88207895D01*
X81136347Y-87874562D02*
X81836347Y-87874562D01*
X81169681Y-87874562D02*
X81136347Y-87807895D01*
X81136347Y-87807895D02*
X81136347Y-87674562D01*
X81136347Y-87674562D02*
X81169681Y-87607895D01*
X81169681Y-87607895D02*
X81203014Y-87574562D01*
X81203014Y-87574562D02*
X81269681Y-87541229D01*
X81269681Y-87541229D02*
X81469681Y-87541229D01*
X81469681Y-87541229D02*
X81536347Y-87574562D01*
X81536347Y-87574562D02*
X81569681Y-87607895D01*
X81569681Y-87607895D02*
X81603014Y-87674562D01*
X81603014Y-87674562D02*
X81603014Y-87807895D01*
X81603014Y-87807895D02*
X81569681Y-87874562D01*
X81136347Y-87341229D02*
X81136347Y-87074562D01*
X80903014Y-87241229D02*
X81503014Y-87241229D01*
X81503014Y-87241229D02*
X81569681Y-87207896D01*
X81569681Y-87207896D02*
X81603014Y-87141229D01*
X81603014Y-87141229D02*
X81603014Y-87074562D01*
X81569681Y-86574562D02*
X81603014Y-86641229D01*
X81603014Y-86641229D02*
X81603014Y-86774562D01*
X81603014Y-86774562D02*
X81569681Y-86841229D01*
X81569681Y-86841229D02*
X81503014Y-86874562D01*
X81503014Y-86874562D02*
X81236347Y-86874562D01*
X81236347Y-86874562D02*
X81169681Y-86841229D01*
X81169681Y-86841229D02*
X81136347Y-86774562D01*
X81136347Y-86774562D02*
X81136347Y-86641229D01*
X81136347Y-86641229D02*
X81169681Y-86574562D01*
X81169681Y-86574562D02*
X81236347Y-86541229D01*
X81236347Y-86541229D02*
X81303014Y-86541229D01*
X81303014Y-86541229D02*
X81369681Y-86874562D01*
X81603014Y-86241229D02*
X81136347Y-86241229D01*
X81269681Y-86241229D02*
X81203014Y-86207896D01*
X81203014Y-86207896D02*
X81169681Y-86174562D01*
X81169681Y-86174562D02*
X81136347Y-86107896D01*
X81136347Y-86107896D02*
X81136347Y-86041229D01*
D12*
X107258666Y-79061819D02*
X107258666Y-79776104D01*
X107258666Y-79776104D02*
X107211047Y-79918961D01*
X107211047Y-79918961D02*
X107115809Y-80014200D01*
X107115809Y-80014200D02*
X106972952Y-80061819D01*
X106972952Y-80061819D02*
X106877714Y-80061819D01*
X107734857Y-80061819D02*
X107734857Y-79061819D01*
X107734857Y-79061819D02*
X108115809Y-79061819D01*
X108115809Y-79061819D02*
X108211047Y-79109438D01*
X108211047Y-79109438D02*
X108258666Y-79157057D01*
X108258666Y-79157057D02*
X108306285Y-79252295D01*
X108306285Y-79252295D02*
X108306285Y-79395152D01*
X108306285Y-79395152D02*
X108258666Y-79490390D01*
X108258666Y-79490390D02*
X108211047Y-79538009D01*
X108211047Y-79538009D02*
X108115809Y-79585628D01*
X108115809Y-79585628D02*
X107734857Y-79585628D01*
X108639619Y-79061819D02*
X109258666Y-79061819D01*
X109258666Y-79061819D02*
X108925333Y-79442771D01*
X108925333Y-79442771D02*
X109068190Y-79442771D01*
X109068190Y-79442771D02*
X109163428Y-79490390D01*
X109163428Y-79490390D02*
X109211047Y-79538009D01*
X109211047Y-79538009D02*
X109258666Y-79633247D01*
X109258666Y-79633247D02*
X109258666Y-79871342D01*
X109258666Y-79871342D02*
X109211047Y-79966580D01*
X109211047Y-79966580D02*
X109163428Y-80014200D01*
X109163428Y-80014200D02*
X109068190Y-80061819D01*
X109068190Y-80061819D02*
X108782476Y-80061819D01*
X108782476Y-80061819D02*
X108687238Y-80014200D01*
X108687238Y-80014200D02*
X108639619Y-79966580D01*
D13*
%TO.C,JP3*%
X106692000Y-80407000D02*
X109492000Y-80407000D01*
X106692000Y-82407000D02*
X106692000Y-80407000D01*
X109492000Y-80407000D02*
X109492000Y-82407000D01*
X109492000Y-82407000D02*
X106692000Y-82407000D01*
%TO.C,U1*%
X95250000Y-80200000D02*
X86050000Y-80200000D01*
X95250000Y-80200000D02*
X104450000Y-80200000D01*
X95250000Y-92520000D02*
X86050000Y-92520000D01*
X95250000Y-92520000D02*
X104450000Y-92520000D01*
X84515000Y-80610000D02*
X84185000Y-80850000D01*
X84185000Y-80370000D01*
X84515000Y-80610000D01*
G36*
X84515000Y-80610000D02*
G01*
X84185000Y-80850000D01*
X84185000Y-80370000D01*
X84515000Y-80610000D01*
G37*
%TO.C,JP1*%
X106804000Y-90186000D02*
X109604000Y-90186000D01*
X106804000Y-92186000D02*
X106804000Y-90186000D01*
X109604000Y-90186000D02*
X109604000Y-92186000D01*
X109604000Y-92186000D02*
X106804000Y-92186000D01*
%TO.C,JP2*%
X76690000Y-90440000D02*
X79490000Y-90440000D01*
X76690000Y-92440000D02*
X76690000Y-90440000D01*
X79490000Y-90440000D02*
X79490000Y-92440000D01*
X79490000Y-92440000D02*
X76690000Y-92440000D01*
D14*
%TO.C,U2*%
X75425300Y-80086200D02*
X76669900Y-80086200D01*
X76669900Y-80086200D02*
X77228700Y-79527400D01*
%TD*%
M02*
