%TF.GenerationSoftware,KiCad,Pcbnew,9.0.6*%
%TF.CreationDate,2026-05-16T01:38:36-04:00*%
%TF.ProjectId,48tsop-32dip,34387473-6f70-42d3-9332-6469702e6b69,rev?*%
%TF.SameCoordinates,Original*%
%TF.FileFunction,Soldermask,Bot*%
%TF.FilePolarity,Negative*%
%FSLAX46Y46*%
G04 Gerber Fmt 4.6, Leading zero omitted, Abs format (unit mm)*
G04 Created by KiCad (PCBNEW 9.0.6) date 2026-05-16 01:38:36*
%MOMM*%
%LPD*%
G01*
G04 APERTURE LIST*
%ADD10C,0.800000*%
G04 APERTURE END LIST*
%TO.C,U2*%
D10*
X76600000Y-78740000D02*
G75*
G02*
X75800000Y-78740000I-400000J0D01*
G01*
X75800000Y-78740000D02*
G75*
G02*
X76600000Y-78740000I400000J0D01*
G01*
X76600000Y-93980000D02*
G75*
G02*
X75800000Y-93980000I-400000J0D01*
G01*
X75800000Y-93980000D02*
G75*
G02*
X76600000Y-93980000I400000J0D01*
G01*
X79140006Y-78736783D02*
G75*
G02*
X78340006Y-78736783I-400000J0D01*
G01*
X78340006Y-78736783D02*
G75*
G02*
X79140006Y-78736783I400000J0D01*
G01*
X79140006Y-93976783D02*
G75*
G02*
X78340006Y-93976783I-400000J0D01*
G01*
X78340006Y-93976783D02*
G75*
G02*
X79140006Y-93976783I400000J0D01*
G01*
X81680000Y-78740000D02*
G75*
G02*
X80880000Y-78740000I-400000J0D01*
G01*
X80880000Y-78740000D02*
G75*
G02*
X81680000Y-78740000I400000J0D01*
G01*
X81680000Y-93980000D02*
G75*
G02*
X80880000Y-93980000I-400000J0D01*
G01*
X80880000Y-93980000D02*
G75*
G02*
X81680000Y-93980000I400000J0D01*
G01*
X84220000Y-78740000D02*
G75*
G02*
X83420000Y-78740000I-400000J0D01*
G01*
X83420000Y-78740000D02*
G75*
G02*
X84220000Y-78740000I400000J0D01*
G01*
X84220000Y-93980000D02*
G75*
G02*
X83420000Y-93980000I-400000J0D01*
G01*
X83420000Y-93980000D02*
G75*
G02*
X84220000Y-93980000I400000J0D01*
G01*
X86760006Y-78736783D02*
G75*
G02*
X85960006Y-78736783I-400000J0D01*
G01*
X85960006Y-78736783D02*
G75*
G02*
X86760006Y-78736783I400000J0D01*
G01*
X86760006Y-93976783D02*
G75*
G02*
X85960006Y-93976783I-400000J0D01*
G01*
X85960006Y-93976783D02*
G75*
G02*
X86760006Y-93976783I400000J0D01*
G01*
X89300000Y-78740000D02*
G75*
G02*
X88500000Y-78740000I-400000J0D01*
G01*
X88500000Y-78740000D02*
G75*
G02*
X89300000Y-78740000I400000J0D01*
G01*
X89300000Y-93980000D02*
G75*
G02*
X88500000Y-93980000I-400000J0D01*
G01*
X88500000Y-93980000D02*
G75*
G02*
X89300000Y-93980000I400000J0D01*
G01*
X91840000Y-78740000D02*
G75*
G02*
X91040000Y-78740000I-400000J0D01*
G01*
X91040000Y-78740000D02*
G75*
G02*
X91840000Y-78740000I400000J0D01*
G01*
X91840000Y-93980000D02*
G75*
G02*
X91040000Y-93980000I-400000J0D01*
G01*
X91040000Y-93980000D02*
G75*
G02*
X91840000Y-93980000I400000J0D01*
G01*
X94380006Y-78736783D02*
G75*
G02*
X93580006Y-78736783I-400000J0D01*
G01*
X93580006Y-78736783D02*
G75*
G02*
X94380006Y-78736783I400000J0D01*
G01*
X94380006Y-93976783D02*
G75*
G02*
X93580006Y-93976783I-400000J0D01*
G01*
X93580006Y-93976783D02*
G75*
G02*
X94380006Y-93976783I400000J0D01*
G01*
X96920000Y-78740000D02*
G75*
G02*
X96120000Y-78740000I-400000J0D01*
G01*
X96120000Y-78740000D02*
G75*
G02*
X96920000Y-78740000I400000J0D01*
G01*
X96920000Y-93980000D02*
G75*
G02*
X96120000Y-93980000I-400000J0D01*
G01*
X96120000Y-93980000D02*
G75*
G02*
X96920000Y-93980000I400000J0D01*
G01*
X99460000Y-78740000D02*
G75*
G02*
X98660000Y-78740000I-400000J0D01*
G01*
X98660000Y-78740000D02*
G75*
G02*
X99460000Y-78740000I400000J0D01*
G01*
X99460000Y-93980000D02*
G75*
G02*
X98660000Y-93980000I-400000J0D01*
G01*
X98660000Y-93980000D02*
G75*
G02*
X99460000Y-93980000I400000J0D01*
G01*
X102000006Y-78736783D02*
G75*
G02*
X101200006Y-78736783I-400000J0D01*
G01*
X101200006Y-78736783D02*
G75*
G02*
X102000006Y-78736783I400000J0D01*
G01*
X102000006Y-93976783D02*
G75*
G02*
X101200006Y-93976783I-400000J0D01*
G01*
X101200006Y-93976783D02*
G75*
G02*
X102000006Y-93976783I400000J0D01*
G01*
X104540000Y-78740000D02*
G75*
G02*
X103740000Y-78740000I-400000J0D01*
G01*
X103740000Y-78740000D02*
G75*
G02*
X104540000Y-78740000I400000J0D01*
G01*
X104540000Y-93980000D02*
G75*
G02*
X103740000Y-93980000I-400000J0D01*
G01*
X103740000Y-93980000D02*
G75*
G02*
X104540000Y-93980000I400000J0D01*
G01*
X107080000Y-78740000D02*
G75*
G02*
X106280000Y-78740000I-400000J0D01*
G01*
X106280000Y-78740000D02*
G75*
G02*
X107080000Y-78740000I400000J0D01*
G01*
X107080000Y-93980000D02*
G75*
G02*
X106280000Y-93980000I-400000J0D01*
G01*
X106280000Y-93980000D02*
G75*
G02*
X107080000Y-93980000I400000J0D01*
G01*
X109620006Y-78736783D02*
G75*
G02*
X108820006Y-78736783I-400000J0D01*
G01*
X108820006Y-78736783D02*
G75*
G02*
X109620006Y-78736783I400000J0D01*
G01*
X109620006Y-93976783D02*
G75*
G02*
X108820006Y-93976783I-400000J0D01*
G01*
X108820006Y-93976783D02*
G75*
G02*
X109620006Y-93976783I400000J0D01*
G01*
X112160000Y-78740000D02*
G75*
G02*
X111360000Y-78740000I-400000J0D01*
G01*
X111360000Y-78740000D02*
G75*
G02*
X112160000Y-78740000I400000J0D01*
G01*
X112160000Y-93980000D02*
G75*
G02*
X111360000Y-93980000I-400000J0D01*
G01*
X111360000Y-93980000D02*
G75*
G02*
X112160000Y-93980000I400000J0D01*
G01*
X114700000Y-78740000D02*
G75*
G02*
X113900000Y-78740000I-400000J0D01*
G01*
X113900000Y-78740000D02*
G75*
G02*
X114700000Y-78740000I400000J0D01*
G01*
X114700000Y-93980000D02*
G75*
G02*
X113900000Y-93980000I-400000J0D01*
G01*
X113900000Y-93980000D02*
G75*
G02*
X114700000Y-93980000I400000J0D01*
G01*
%TD*%
M02*
